<svg xmlns="http://www.w3.org/2000/svg"  viewBox="0 0 64 64" width="64px" height="64px"><path fill="#85cbf8" d="M17.792,9.083C10.672,9.083,4.875,14.881,4.875,22c0,1.327,0.343,2.558,0.716,3.759 C2.832,27.883,1,31.168,1,34.917c0,6.403,5.222,11.625,11.625,11.625c0.439,0,0.858-0.076,1.282-0.126 C15.799,50.28,19.669,53,24.25,53c4.334,0,8.033-2.442,10.031-5.969c1.13,0.399,2.265,0.802,3.532,0.802 c3.961,0,7.367-2.165,9.299-5.323c0.55,0.071,1.1,0.156,1.68,0.156C56.622,42.667,63,36.289,63,28.458S56.622,14.25,48.792,14.25 c-1.625,0-3.123,0.444-4.581,0.949c-1.978-2.881-5.232-4.824-8.981-4.824c-3.027,0-5.611,1.418-7.594,3.411 C25.264,10.95,21.768,9.083,17.792,9.083z"/><path fill="#7bbeeb" d="M34.17,47.21C32.15,50.64,28.51,53,24.25,53c-4.31,0-7.98-2.4-9.97-5.9l0.212-0.148 c1.905-1.332,4.382-1.23,6.334,0.032C21.838,47.637,23.015,48,24.25,48c1.246,0,2.429-0.363,3.447-1.026 c1.804-1.175,4.113-1.234,5.94-0.096L34.17,47.21z"/><path fill="#ace3ff" d="M26.46,12.54l-0.092,0.092c-1.667,1.667-4.13,2.418-6.373,1.695 c-0.709-0.228-1.449-0.326-2.204-0.247c-4.717,0.494-6.635,2.923-7.387,5.123C9.615,21.508,7.376,23,4.94,23h0 c-0.073-0.603-0.079-1.207-0.019-1.871C5.47,15.136,9.978,10.07,15.935,9.214C20.051,8.622,23.757,10.038,26.46,12.54z"/><path fill="#8d6c9f" d="M48.792,13.25c-1.552,0-2.965,0.364-4.208,0.768c-2.279-2.921-5.723-4.643-9.354-4.643 c-2.705,0-5.29,1.028-7.533,2.984c-2.639-2.729-6.194-4.276-9.904-4.276C10.118,8.083,3.875,14.326,3.875,22 c0,1.229,0.258,2.354,0.565,3.406C1.609,27.828,0,31.258,0,34.917c0,6.962,5.663,12.625,12.625,12.625 c0.254,0,0.49-0.02,0.719-0.046C15.593,51.526,19.71,54,24.25,54c4.188,0,8.125-2.188,10.464-5.76 c0.959,0.32,1.965,0.593,3.099,0.593c3.921,0,7.536-1.95,9.795-5.25c0.377,0.047,0.767,0.084,1.185,0.084 C57.178,43.667,64,36.845,64,28.458C64,20.072,57.178,13.25,48.792,13.25z M48.792,41.667c-0.434,0-0.863-0.058-1.317-0.118 l-0.234-0.031c-0.393-0.042-0.776,0.135-0.982,0.471c-1.855,3.033-5.013,4.845-8.445,4.845c-1.086,0-2.1-0.357-3.2-0.745 c-0.453-0.158-0.963,0.028-1.202,0.45C31.473,49.958,28.048,52,24.25,52c-4.007,0-7.626-2.309-9.445-6.023 c-0.17-0.346-0.52-0.561-0.898-0.561c-0.038,0-0.077,0.002-0.117,0.007l-0.34,0.044c-0.271,0.036-0.542,0.075-0.824,0.075 C6.767,45.542,2,40.775,2,34.917c0-3.262,1.531-6.311,4.202-8.366c0.331-0.255,0.469-0.689,0.345-1.09 c-0.34-1.09-0.672-2.255-0.672-3.461c0-6.571,5.346-11.917,11.917-11.917c3.459,0,6.768,1.584,9.077,4.345 c0.18,0.216,0.442,0.346,0.724,0.357c0.278,0.022,0.553-0.094,0.752-0.294c1.414-1.422,3.756-3.116,6.885-3.116 c3.221,0,6.27,1.641,8.156,4.39c0.255,0.371,0.729,0.524,1.15,0.379c1.251-0.433,2.715-0.894,4.256-0.894 C56.075,15.25,62,21.175,62,28.458S56.075,41.667,48.792,41.667z"/><path fill="#fff" d="M26.901 26.926c-.272-.271-.534-.456-.803-.562-.857-.336-1.874-.263-2.528.021-.396.176-.722.407-.965.686-.251.282-.447.628-.569 1.006-.114.378-.173.782-.173 1.201 0 .432.061.834.181 1.198.126.373.331.706.61.992.282.283.625.495 1.048.648.404.146.877.221 1.403.221 1.102-.002 1.745-.201 2.091-.378.141-.072.263-.245.152-.48l-.251-.644c-.034-.092-.101-.162-.185-.199-.127-.058-.244-.019-.265-.01l-.1.033c-.265.091-.627.216-1.384.216-.498-.005-.891-.127-1.136-.352-.181-.167-.29-.405-.336-.74l3.521.006c.161 0 .336-.108.357-.303.023-.132.129-.831-.117-1.628C27.354 27.494 27.097 27.12 26.901 26.926zM25.861 28.417h-2.112c.051-.174.117-.32.2-.436.19-.272.479-.405.885-.405.393 0 .657.126.859.408C25.771 28.091 25.826 28.231 25.861 28.417zM20.623 23.293H19.61c-.199 0-.355.161-.355.367v8.311c0 .206.156.367.355.367h1.013c.199 0 .355-.161.355-.367V23.66C20.979 23.454 20.822 23.293 20.623 23.293zM10.675 28.511l-.113-.028c-.496-.149-1.06-.319-1.06-.556 0-.242.305-.351.606-.351.499 0 1.156.153 1.581.366.04.022.184.096.331.04.096-.033.169-.106.201-.19.028-.063.257-.634.274-.686.055-.126.044-.319-.174-.454-.578-.324-1.324-.511-2.047-.511h-.134c-1.379 0-2.342.789-2.342 1.94 0 1.313 1.315 1.659 2.021 1.844l.161.044c.495.141 1.006.286 1.006.538 0 .246-.288.418-.701.418-.576 0-1.116-.144-1.613-.433-.047-.025-.083-.047-.117-.067l-.097-.057c-.105-.06-.219-.075-.321-.038-.098.034-.175.113-.216.22l-.264.68c-.067.16-.029.316.122.435.104.072.209.125.317.18l.087.045c.631.31 1.269.448 2.068.448 1.477 0 2.431-.772 2.431-1.985C12.684 29.104 11.377 28.718 10.675 28.511zM15.988 26.142c-.29 0-.763.033-1.061.093-.091.016-.897.162-1.263.429-.13.08-.213.263-.129.444l.266.662c.076.202.28.259.445.207.013-.005.06-.023.084-.043.667-.333 1.546-.329 1.546-.33.354 0 .622.062.793.181.095.068.187.166.206.505-.206-.022-.357-.033-.358-.033-.387-.028-1.069-.038-1.604.097-.333.086-.626.211-.873.375-.268.183-.479.406-.627.666-.159.276-.239.592-.239.937 0 .341.067.648.201.916.137.263.331.48.579.65.245.161.535.276.861.342.329.066.685.1 1.057.1.424 0 .815-.03 1.194-.092.379-.057.843-.146.973-.176.13-.027.266-.067.267-.067.196-.047.289-.222.28-.354v-3.216c0-.788-.233-1.376-.693-1.746C17.443 26.325 16.803 26.142 15.988 26.142zM16.879 29.676v1.167c-.186.028-.479.067-.788.083-.598.043-.905-.125-.945-.148l-.004-.003c-.121-.089-.127-.1-.164-.158-.025-.035-.068-.121-.068-.309 0-.226.07-.372.227-.476l.059-.039c.097-.053.381-.169.897-.17C16.399 29.626 16.691 29.654 16.879 29.676zM52.16 30.706c-.128-.059-.248-.023-.281-.01l-.002.001c-.158.061-.315.103-.465.126-.164.023-.354.035-.581.035-.487 0-.849-.122-1.107-.376-.266-.252-.406-.68-.406-1.237 0-.508.122-.903.374-1.212.226-.281.569-.418 1.051-.418.432 0 .765.045 1.098.146.032.012.141.045.264-.011.061-.028.142-.088.198-.242l.269-.686c.062-.185-.027-.366-.227-.444-.158-.055-.514-.143-.795-.185-.255-.034-.551-.052-.879-.052-.505 0-.957.081-1.339.24-.385.153-.72.377-.997.667-.263.281-.464.615-.598.993-.128.356-.192.761-.192 1.203 0 .934.272 1.688.811 2.244.552.563 1.358.849 2.398.849.577 0 1.203-.104 1.692-.285l.09-.056.132-.25-.322-.835C52.311 30.818 52.245 30.745 52.16 30.706zM47.831 26.714c.034-.103.023-.208-.029-.297-.044-.073-.115-.129-.193-.152-.138-.05-.477-.104-.696-.118-.508-.028-.797.048-1.092.171-.055.023-.171.077-.301.156-.039-.158-.182-.276-.352-.276h-.974c-.202 0-.361.159-.361.361v5.418c0 .202.161.361.366.361h.996c.206 0 .361-.155.361-.361v-2.709c0-.347.045-.676.12-.868.065-.187.155-.336.262-.434.109-.101.232-.172.373-.216.122-.036.285-.058.437-.058.168 0 .358.044.4.05.067.011.276-.007.387-.256.037-.09.106-.274.17-.441C47.759 26.903 47.807 26.774 47.831 26.714zM42.58 27.056l-.004-.004c-.253-.278-.574-.503-.954-.667-.754-.324-1.862-.32-2.602 0-.372.161-.69.386-.949.669-.245.275-.433.61-.558.996-.118.368-.179.771-.179 1.195 0 .428.061.828.179 1.188.128.396.315.731.558.998.253.283.583.513.952.664.385.161.821.242 1.299.242.493 0 .931-.08 1.298-.236.371-.155.693-.38.958-.671.249-.278.437-.612.558-.99.117-.363.174-.754.174-1.195s-.057-.832-.174-1.194C43.016 27.676 42.829 27.341 42.58 27.056zM41.524 29.245c0 .556-.105.981-.313 1.266l-.004.004c-.185.266-.466.389-.885.389-.415 0-.695-.123-.88-.389-.204-.291-.312-.73-.312-1.27 0-.541.107-.978.312-1.264.183-.262.462-.384.88-.384.42 0 .704.123.894.388C41.421 28.266 41.524 28.689 41.524 29.245z"/><path fill="#fff" d="M58.091 27.855c-.109-.369-.363-.74-.552-.929-.271-.271-.534-.454-.808-.562-.365-.146-.772-.223-1.177-.223-.521 0-.975.082-1.354.244-.391.173-.714.404-.957.683-.254.279-.446.617-.57 1.006-.118.373-.179.778-.179 1.204 0 .421.062.824.186 1.198.13.384.335.717.608.99.271.277.625.496 1.05.65.404.146.877.221 1.403.221 1.074-.002 1.745-.201 2.104-.385.135-.08.238-.25.134-.472l-.245-.646c-.082-.216-.302-.27-.455-.209l-.103.034c-.263.091-.622.215-1.38.215-.5-.005-.89-.126-1.131-.352-.181-.167-.29-.405-.336-.74l3.527.006c.151 0 .323-.104.362-.343C58.286 28.907 58.242 28.356 58.091 27.855zM56.497 28.417h-2.114c.049-.174.116-.319.202-.436.193-.276.474-.405.88-.405.397 0 .662.125.859.408C56.403 28.093 56.46 28.236 56.497 28.417zM37.587 27.341l.141-.799c.02-.141-.031-.233-.077-.286-.048-.055-.138-.12-.293-.12h-.927c.036-.233.096-.564.173-.785.046-.134.138-.243.207-.312.067-.067.139-.113.217-.139.159-.05.441-.05.585-.024l.093.023c.041.01.064.016.088.023.21.065.366.007.473-.209l.286-.794c.035-.088.035-.183-.001-.265-.037-.086-.112-.156-.223-.199-.135-.043-.251-.068-.407-.092-.17-.031-.357-.048-.559-.048-.759 0-1.359.22-1.784.651-.412.412-.693 1.035-.839 1.861l-.042.308h-.626c-.158-.001-.346.098-.388.316l-.148.819c-.008.139.045.227.092.276.069.074.166.111.286.111h.541l-.798 4.458c-.063.362-.138.664-.219.896-.074.215-.147.367-.228.475-.082.105-.141.151-.226.183-.165.053-.365.083-.63.019-.07-.013-.092-.021-.171-.058-.154-.049-.368.004-.448.206-.037.088-.264.715-.279.78-.039.099-.037.202.006.293.04.085.114.15.188.174.121.049.213.074.39.12.237.048.432.055.605.055.38 0 .732-.055 1.018-.159.293-.104.555-.283.805-.554.229-.257.386-.525.543-.931.132-.359.248-.804.346-1.323l.815-4.633h1.027C37.369 27.652 37.544 27.562 37.587 27.341zM37.357 26.386L37.357 26.386 37.357 26.386 37.357 26.386z"/><path fill="#fff" d="M33.14,30.369v-0.017c0-1.248-1.307-1.635-2.021-1.846l-0.102-0.024 c-0.496-0.149-1.06-0.319-1.06-0.556c0-0.242,0.302-0.351,0.601-0.351c0.505,0,1.161,0.153,1.582,0.366 c0.039,0.022,0.182,0.094,0.333,0.04c0.095-0.034,0.167-0.107,0.198-0.19c0.028-0.063,0.259-0.638,0.274-0.686 c0.072-0.168,0.01-0.344-0.168-0.454c-0.578-0.324-1.324-0.511-2.047-0.511h-0.134c-1.379,0-2.342,0.789-2.342,1.94 c0,1.311,1.315,1.658,2.021,1.844l0.155,0.042c0.495,0.141,1.007,0.286,1.007,0.54c0,0.246-0.286,0.418-0.696,0.418 c-0.579,0-1.119-0.144-1.613-0.433c-0.088-0.047-0.141-0.078-0.187-0.105c-0.073-0.055-0.205-0.093-0.333-0.058 c-0.109,0.033-0.194,0.116-0.231,0.221l-0.264,0.68c-0.063,0.15-0.034,0.297,0.048,0.364l0.073,0.073 c0.104,0.069,0.207,0.121,0.311,0.174l0.095,0.048c0.631,0.31,1.269,0.448,2.068,0.448C32.186,32.338,33.14,31.565,33.14,30.369z"/><g><path fill="#8d6c9f" d="M20.966,14.772c0.187-0.52-0.084-1.092-0.604-1.278C19.446,13.166,18.483,13,17.5,13 c-3.186,0-6.077,1.757-7.547,4.586c-0.254,0.49-0.063,1.094,0.427,1.349c0.147,0.076,0.305,0.112,0.46,0.112 c0.361,0,0.71-0.196,0.889-0.539C12.853,16.344,15.063,15,17.5,15c0.753,0,1.488,0.127,2.188,0.377 C20.205,15.562,20.779,15.293,20.966,14.772z"/></g></svg>