<?xml version="1.0" encoding="iso-8859-1"?>
<!-- Generator: Adobe Illustrator 23.1.1, SVG Export Plug-In . SVG Version: 6.00 Build 0)  -->
<svg version="1.1" id="_x31_-outline-expand" xmlns="http://www.w3.org/2000/svg" xmlns:xlink="http://www.w3.org/1999/xlink"
	 x="0px" y="0px" viewBox="0 0 64 64" style="enable-background:new 0 0 64 64;" xml:space="preserve">
<path style="fill:#CAEAE9;" d="M39,61H13c-2.209,0-4-1.791-4-4V7c0-2.209,1.791-4,4-4h26c2.209,0,4,1.791,4,4v50
	C43,59.209,41.209,61,39,61"/>
<path style="fill:#F2DAAE;" d="M43,49h19V25H49V14c-3.313,0-6,2.687-6,6V49z"/>
<path style="fill:#F2DAAE;" d="M9,28c0,1.657-1.343,3-3,3s-3-1.343-3-3c0-1.657,1.343-3,3-3S9,26.343,9,28"/>
<path style="fill:#F2DAAE;" d="M9,34c0,1.657-1.343,3-3,3s-3-1.343-3-3c0-1.657,1.343-3,3-3S9,32.343,9,34"/>
<path style="fill:#F2DAAE;" d="M9,40c0,1.657-1.343,3-3,3s-3-1.343-3-3c0-1.657,1.343-3,3-3S9,38.343,9,40"/>
<path style="fill:#F2DAAE;" d="M9,46c0,1.657-1.343,3-3,3s-3-1.343-3-3c0-1.657,1.343-3,3-3S9,44.343,9,46"/>
<path style="fill:#62C4C3;" d="M43,9H9V7c0-2.209,1.791-4,4-4h26c2.209,0,4,1.791,4,4V9z"/>
<path style="fill:#62C4C3;" d="M9,55h34v2c0,2.209-1.791,4-4,4H13c-2.209,0-4-1.791-4-4V55z"/>
<rect x="13" y="15" style="fill:#EFBC2E;" width="10" height="8"/>
<rect x="29" y="28" style="fill:#EFBC2E;" width="10" height="8"/>
<rect x="13" y="41" style="fill:#EFBC2E;" width="10" height="8"/>
<path style="fill:#3A4249;" d="M49,26h13v-2H50V14c0-0.553-0.447-1-1-1c-1.958,0-3.729,0.811-5,2.11V7c0-2.757-2.243-5-5-5H13
	c-2.757,0-5,2.243-5,5v17.557C7.409,24.212,6.731,24,6,24c-2.206,0-4,1.794-4,4c0,1.2,0.542,2.267,1.382,3C2.542,31.733,2,32.8,2,34
	s0.542,2.267,1.382,3C2.542,37.733,2,38.8,2,40c0,1.2,0.542,2.267,1.382,3C2.542,43.733,2,44.8,2,46c0,2.206,1.794,4,4,4
	c0.731,0,1.409-0.212,2-0.557V57c0,2.757,2.243,5,5,5h26c2.757,0,5-2.243,5-5v-7h18v-2H44V20c0-2.415,1.721-4.435,4-4.899V25
	C48,25.553,48.447,26,49,26 M13,4h26c1.654,0,3,1.346,3,3v1H10V7C10,5.346,11.346,4,13,4 M4,28c0-1.103,0.897-2,2-2s2,0.897,2,2
	s-0.897,2-2,2S4,29.103,4,28 M4,34c0-1.103,0.897-2,2-2s2,0.897,2,2s-0.897,2-2,2S4,35.103,4,34 M4,40c0-1.103,0.897-2,2-2
	s2,0.897,2,2c0,1.103-0.897,2-2,2S4,41.103,4,40 M6,48c-1.103,0-2-0.897-2-2c0-1.103,0.897-2,2-2s2,0.897,2,2
	C8,47.103,7.103,48,6,48 M39,60H13c-1.654,0-3-1.346-3-3v-1h32v1C42,58.654,40.654,60,39,60 M42,54H10V10h32v10V54z"/>
<path style="fill:#3A4249;" d="M13,24h10c0.553,0,1-0.448,1-1v-8c0-0.553-0.447-1-1-1H13c-0.553,0-1,0.447-1,1v8
	C12,23.552,12.447,24,13,24 M14,16h8v6h-8V16z"/>
<path style="fill:#3A4249;" d="M39,27H29c-0.553,0-1,0.447-1,1v8c0,0.552,0.447,1,1,1h10c0.553,0,1-0.448,1-1v-8
	C40,27.447,39.553,27,39,27 M38,35h-8v-6h8V35z"/>
<rect x="26" y="14" style="fill:#3A4249;" width="14" height="2"/>
<rect x="26" y="18" style="fill:#3A4249;" width="14" height="2"/>
<rect x="26" y="22" style="fill:#3A4249;" width="10" height="2"/>
<path style="fill:#3A4249;" d="M23,40H13c-0.553,0-1,0.447-1,1v8c0,0.552,0.447,1,1,1h10c0.553,0,1-0.448,1-1v-8
	C24,40.447,23.553,40,23,40 M22,48h-8v-6h8V48z"/>
<rect x="26" y="40" style="fill:#3A4249;" width="14" height="2"/>
<rect x="26" y="44" style="fill:#3A4249;" width="14" height="2"/>
<rect x="26" y="48" style="fill:#3A4249;" width="2" height="2"/>
<rect x="12" y="27" style="fill:#3A4249;" width="14" height="2"/>
<rect x="12" y="31" style="fill:#3A4249;" width="14" height="2"/>
<rect x="12" y="35" style="fill:#3A4249;" width="14" height="2"/>
<rect x="38" y="22" style="fill:#3A4249;" width="2" height="2"/>
<rect x="30" y="48" style="fill:#3A4249;" width="2" height="2"/>
<rect x="34" y="48" style="fill:#3A4249;" width="2" height="2"/>
<rect x="38" y="48" style="fill:#3A4249;" width="2" height="2"/>
</svg>
