<?xml version="1.0" ?><svg id="Layer_3" style="enable-background:new 0 0 64 64;" version="1.1" viewBox="0 0 64 64" xml:space="preserve" xmlns="http://www.w3.org/2000/svg" xmlns:xlink="http://www.w3.org/1999/xlink"><g><g><polygon points="2,4 2,62 60,62 12,14   " style="fill:#B96F18;"/></g><g><polygon points="2,8 2,62 56,62 8,14   " style="fill:#F7931E;"/></g><g><polygon points="60,62 62,62 62,14 46,14 46,48   " style="fill:#754C24;"/></g><g><polygon points="58,59.923 58,14 46,14 46,48   " style="fill:#8C6239;"/></g><g><polygon points="62,2 2,2 2,14 46,14 62,14   " style="fill:#754C24;"/></g><g><polyline points="46,14 58,14 58,2 2,2 2,14   " style="fill:#8C6239;"/></g><g><rect height="4" style="fill:#E6E6E6;" width="22" x="21" y="6"/></g><g><rect height="4" style="fill:#F2F2F2;" width="13" x="21" y="6"/></g><g><polygon points="12,52 32,52 12,32   " style="fill:#E6E6E6;"/></g><g><polygon points="12,38 12,52 26,52   " style="fill:#F2F2F2;"/></g><g><path d="M60,63H2c-0.553,0-1-0.447-1-1V14h2v47h54.586L11.293,14.707l1.414-1.414l48,48c0.286,0.286,0.372,0.716,0.217,1.09    C60.77,62.757,60.404,63,60,63z"/></g><g><path d="M32,53H12c-0.553,0-1-0.447-1-1V32c0-0.404,0.243-0.77,0.617-0.924s0.804-0.069,1.09,0.217l20,20    c0.286,0.286,0.372,0.716,0.217,1.09C32.77,52.757,32.404,53,32,53z M13,51h16.586L13,34.414V51z"/></g><g><rect height="2" width="5" x="2" y="21"/></g><g><rect height="2" width="5" x="2" y="25"/></g><g><rect height="2" width="5" x="2" y="29"/></g><g><rect height="2" width="5" x="2" y="33"/></g><g><rect height="2" width="7" x="2" y="37"/></g><g><rect height="2" width="5" x="2" y="41"/></g><g><rect height="2" width="5" x="2" y="45"/></g><g><rect height="2" width="5" x="2" y="49"/></g><g><rect height="2" width="5" x="2" y="53"/></g><g><rect height="2" width="5" x="2" y="21"/></g><g><rect height="2" width="5" x="2" y="25"/></g><g><rect height="2" width="5" x="2" y="29"/></g><g><rect height="2" width="5" x="2" y="33"/></g><g><rect height="2" width="7" x="2" y="37"/></g><g><rect height="2" width="7" x="2" y="17"/></g><g><rect height="2" width="7" x="2" y="17"/></g><g><rect height="2" width="5" x="2" y="41"/></g><g><rect height="2" width="5" x="2" y="45"/></g><g><rect height="2" width="5" x="2" y="49"/></g><g><rect height="2" width="5" x="2" y="53"/></g><g><rect height="7" width="2" x="10" y="55"/></g><g><rect height="5" width="2" x="14" y="57"/></g><g><rect height="5" width="2" x="18" y="57"/></g><g><rect height="5" width="2" x="22" y="57"/></g><g><rect height="5" width="2" x="26" y="57"/></g><g><rect height="7" width="2" x="30" y="55"/></g><g><rect height="5" width="2" x="34" y="57"/></g><g><rect height="5" width="2" x="38" y="57"/></g><g><rect height="5" width="2" x="42" y="57"/></g><g><rect height="5" width="2" x="46" y="57"/></g><g><rect height="7" width="2" x="10" y="55"/></g><g><rect height="5" width="2" x="14" y="57"/></g><g><rect height="5" width="2" x="18" y="57"/></g><g><rect height="5" width="2" x="22" y="57"/></g><g><rect height="5" width="2" x="26" y="57"/></g><g><rect height="7" width="2" x="30" y="55"/></g><g><rect height="5" width="2" x="34" y="57"/></g><g><rect height="5" width="2" x="38" y="57"/></g><g><rect height="5" width="2" x="42" y="57"/></g><g><rect height="5" width="2" x="46" y="57"/></g><g><rect height="34" width="2" x="45" y="14"/></g><g><path d="M43,11H21c-0.553,0-1-0.447-1-1V6c0-0.553,0.447-1,1-1h22c0.553,0,1,0.447,1,1v4C44,10.553,43.553,11,43,11z M22,9h20V7    H22V9z"/></g><g><rect height="2" width="7" x="55" y="17"/></g><g><rect height="2" width="5" x="57" y="21"/></g><g><rect height="2" width="5" x="57" y="25"/></g><g><rect height="2" width="5" x="57" y="29"/></g><g><rect height="2" width="5" x="57" y="33"/></g><g><rect height="2" width="7" x="55" y="37"/></g><g><rect height="2" width="5" x="57" y="41"/></g><g><rect height="2" width="5" x="57" y="45"/></g><g><rect height="2" width="5" x="57" y="49"/></g><g><rect height="2" width="5" x="57" y="53"/></g><g><path d="M62,63h-2v-2h1V15H2c-0.553,0-1-0.447-1-1V2c0-0.553,0.447-1,1-1h60c0.553,0,1,0.447,1,1v60C63,62.553,62.553,63,62,63z     M3,13h58V3H3V13z"/></g></g></svg>